# xmcd
#
# Track frame offsets: 
#        150
#        18052
#        31192
#        61005
#        76970
#        90767
#        112920
#        130455
#        146195
#        169990
#
# Disc length: 2527 seconds
#
# Revision: 0
# Processed by: cddbd v1.5.2PL0 Copyright (c) Steve Scherf et al.
# Submitted via: ExactAudioCopy v0.99pb5
#
DISCID=7109dd0a
DTITLE=Carvin Jones - The Carvinator
DYEAR=2009
DGENRE=Blues
TTITLE0=The Carvinator
TTITLE1=I Only Have One Gear
TTITLE2=Midnight Seduction
TTITLE3=Kitchen Full of Problems
TTITLE4=Traviswalk
TTITLE5=Wrong Turn
TTITLE6=Gangster of Love
TTITLE7=Frosty
TTITLE8=Angel of Mercy
TTITLE9=Difference of Opinion
EXTD=
EXTT0=
EXTT1=
EXTT2=
EXTT3=
EXTT4=
EXTT5=
EXTT6=
EXTT7=
EXTT8=
EXTT9=
PLAYORDER=
